<?xml version="1.0" standalone="no"?>
<!DOCTYPE svg PUBLIC "-//W3C//DTD SVG 20010904//EN"
 "http://www.w3.org/TR/2001/REC-SVG-20010904/DTD/svg10.dtd">
<svg version="1.0" xmlns="http://www.w3.org/2000/svg"
 width="396.000000pt" height="339.000000pt" viewBox="0 0 396.000000 339.000000"
 preserveAspectRatio="xMidYMid meet">

<g transform="translate(0.000000,339.000000) scale(0.100000,-0.100000)"
fill="#000000" stroke="none">
<path d="M1795 3094 c-114 -29 -160 -58 -217 -136 -75 -104 -79 -123 -67 -367
3 -72 8 -89 29 -113 28 -32 50 -35 84 -13 23 15 23 17 10 62 -22 71 -18 153
11 229 14 36 25 81 25 100 0 30 3 34 36 40 96 18 172 -17 251 -114 46 -56 52
-72 29 -72 -8 0 -18 -5 -22 -12 -4 -7 -3 -8 5 -4 23 15 51 -6 86 -64 20 -33
41 -62 46 -66 6 -3 0 11 -14 32 -13 22 -41 72 -62 111 -20 40 -56 93 -79 118
-51 54 -45 57 16 10 56 -42 108 -112 149 -198 l31 -66 -17 -58 c-13 -43 -29
-70 -64 -104 l-46 -47 14 -46 c14 -45 16 -47 45 -40 68 14 143 49 174 80 27
27 32 39 32 81 0 129 -68 391 -127 492 -44 75 -90 119 -151 141 -56 21 -168
34 -207 24z m-246 -211 c-15 -37 -17 -182 -3 -191 20 -14 52 -132 35 -132 -4
0 -18 11 -30 24 -27 28 -46 144 -35 216 6 46 29 110 38 110 3 0 1 -12 -5 -27z
m669 -159 c2 -32 -16 -75 -35 -82 -10 -3 -13 15 -13 68 l0 72 23 -14 c13 -9
23 -27 25 -44z"/>
<path d="M1735 2670 c-7 -12 2 -12 30 0 19 8 19 9 -2 9 -12 1 -25 -3 -28 -9z"/>
<path d="M1974 2659 c-3 -6 1 -18 10 -27 14 -14 18 -15 25 -3 6 9 4 19 -4 28
-16 16 -22 16 -31 2z"/>
<path d="M1744 2629 c-10 -17 23 -46 37 -32 7 7 9 19 6 27 -7 18 -33 21 -43 5z"/>
<path d="M1873 2513 c-42 -3 -53 -8 -53 -22 0 -30 19 -40 48 -25 16 8 40 11
60 8 29 -6 32 -4 32 20 0 19 -5 25 -17 24 -10 -1 -42 -3 -70 -5z"/>
<path d="M1680 2422 c0 -8 18 -34 40 -59 21 -24 44 -60 50 -79 9 -26 17 -34
36 -34 22 0 24 4 24 44 0 39 -3 45 -27 51 -29 7 -89 48 -110 75 -9 11 -12 12
-13 2z"/>
<path d="M1526 2388 c-10 -6 -30 -8 -44 -5 -78 15 -209 -82 -237 -175 -25 -84
-20 -130 19 -180 18 -25 36 -51 40 -59 13 -30 -3 38 -21 84 -18 47 -18 48 5
87 12 21 22 49 22 62 1 22 1 22 15 5 13 -18 14 -17 18 10 4 27 5 27 12 6 9
-28 15 -28 49 -2 16 12 26 16 26 8 0 -7 8 -5 22 7 12 10 18 13 14 7 -14 -24
15 -13 45 16 16 16 31 25 35 20 9 -15 24 -10 24 8 0 13 3 14 12 5 7 -7 20 -12
30 -12 16 0 17 3 7 23 -11 21 -11 21 7 6 10 -9 36 -22 56 -28 46 -15 56 -27
78 -98 l19 -58 0 54 c1 63 -24 123 -69 166 -27 26 -32 27 -55 15 -22 -12 -28
-11 -48 7 -28 25 -59 33 -81 21z"/>
<path d="M1200 2282 c-94 -13 -127 -55 -114 -147 3 -27 6 -51 5 -53 -1 -1 5
-15 14 -32 25 -49 19 -119 -15 -173 -16 -26 -26 -47 -22 -47 4 0 24 4 44 9 22
5 36 5 32 0 -8 -14 9 -11 34 7 45 32 66 100 36 125 -10 8 -14 26 -13 54 2 23
-3 56 -10 73 -14 33 -8 68 9 57 6 -4 10 8 10 28 0 19 5 48 11 66 13 37 12 38
-21 33z"/>
<path d="M1603 2213 c-7 -2 -13 -9 -13 -15 0 -6 6 -6 15 2 8 6 20 8 26 4 8 -4
9 -3 5 4 -8 13 -13 14 -33 5z"/>
<path d="M1062 2170 c0 -19 2 -27 5 -17 2 9 2 25 0 35 -3 9 -5 1 -5 -18z"/>
<path d="M1612 2158 c4 -28 31 -31 36 -4 3 11 0 16 -7 12 -6 -4 -11 -2 -11 3
0 6 -5 11 -11 11 -6 0 -9 -10 -7 -22z"/>
<path d="M3290 2155 c0 -8 16 -32 36 -53 l36 -37 -6 38 c-3 22 -10 45 -17 53
-15 19 -49 18 -49 -1z"/>
<path d="M1394 2125 c-18 -14 -18 -14 4 -8 12 3 22 9 22 14 0 12 -3 11 -26 -6z"/>
<path d="M1404 2075 c-2 -19 3 -25 18 -25 14 0 19 6 16 22 -4 33 -33 35 -34 3z"/>
<path d="M1570 2055 c-14 -8 -35 -14 -47 -15 -28 0 -38 -17 -23 -35 11 -13 15
-13 33 0 12 8 32 15 45 15 24 0 41 25 26 40 -5 5 -20 3 -34 -5z"/>
<path d="M3270 2019 c0 -28 64 -89 68 -66 5 27 -28 87 -49 87 -13 0 -19 -7
-19 -21z"/>
<path d="M3399 1976 c-20 -14 -39 -22 -43 -19 -3 4 -6 1 -6 -7 0 -17 99 -8
111 11 24 39 -14 48 -62 15z"/>
<path d="M3220 1926 c0 -27 44 -85 56 -74 4 4 3 27 -2 50 -7 34 -14 44 -32 46
-18 3 -22 -1 -22 -22z"/>
<path d="M914 1925 c-3 -8 -4 -37 -2 -64 l5 -50 -56 2 c-51 2 -56 0 -59 -20
-3 -19 1 -23 22 -23 14 0 43 8 65 17 31 14 41 25 55 64 10 27 15 57 11 69 -7
23 -33 27 -41 5z"/>
<path d="M695 1894 c-12 -13 -13 -19 -4 -31 13 -15 38 -12 93 9 l29 12 -34 12
c-47 17 -65 17 -84 -2z"/>
<path d="M2252 1806 c-23 -113 -8 -220 40 -282 l23 -29 5 40 c4 27 -2 62 -18
110 -13 39 -27 104 -31 145 l-6 75 -13 -59z"/>
<path d="M3097 1853 c-15 -14 -5 -52 22 -86 15 -20 31 -34 35 -30 3 3 6 1 6
-5 0 -6 18 -17 40 -23 35 -11 43 -10 57 3 26 27 6 41 -49 35 -29 -4 -46 -2
-43 3 3 6 -1 7 -9 4 -13 -5 -16 2 -16 34 0 24 -7 47 -16 56 -18 18 -18 18 -27
9z"/>
<path d="M3253 1816 c-18 -21 -18 -21 4 -3 20 17 23 17 53 2 37 -19 85 -17 85
5 0 12 -14 15 -62 16 -52 2 -65 -1 -80 -20z"/>
<path d="M862 1708 c2 -18 11 -24 36 -26 19 -2 41 -1 49 2 23 9 -28 46 -62 46
-22 0 -26 -4 -23 -22z"/>
<path d="M2985 1720 c-8 -13 21 -66 46 -84 12 -8 19 -18 16 -23 -3 -4 21 -9
53 -10 42 -2 61 1 70 12 22 27 -3 41 -48 29 -20 -6 -43 -13 -51 -15 -9 -3 -18
10 -25 36 -6 22 -15 46 -19 53 -10 14 -33 16 -42 2z"/>
<path d="M992 1635 c0 -16 2 -22 5 -12 2 9 2 23 0 30 -3 6 -5 -1 -5 -18z"/>
<path d="M1040 1608 c-11 -18 -20 -44 -21 -58 0 -23 -1 -23 -9 -5 -7 17 -9 18
-9 2 -1 -16 -3 -16 -32 -2 -38 20 -83 16 -87 -7 -4 -22 34 -32 92 -24 54 8
119 64 114 97 -5 35 -25 34 -48 -3z"/>
<path d="M1090 1481 c-5 -11 -10 -33 -10 -50 0 -35 -12 -40 -60 -27 -45 12
-70 3 -70 -24 0 -16 6 -20 34 -20 53 0 103 26 132 70 27 40 27 70 0 70 -9 0
-20 -9 -26 -19z"/>
<path d="M2948 1479 c-23 -13 -24 -65 -2 -73 51 -20 88 17 59 60 -17 26 -30
29 -57 13z"/>
<path d="M1020 1471 c0 -6 4 -13 10 -16 6 -3 7 1 4 9 -7 18 -14 21 -14 7z"/>
<path d="M1164 1399 c-4 -7 -7 -35 -8 -63 l-1 -51 -38 2 c-48 3 -77 -11 -77
-37 0 -26 29 -26 82 0 22 11 45 17 51 13 6 -3 7 -1 3 5 -3 6 4 31 16 57 17 34
20 50 12 62 -14 22 -30 27 -40 12z"/>
<path d="M1095 1350 c10 -11 20 -20 23 -20 3 0 -3 9 -13 20 -10 11 -20 20 -23
20 -3 0 3 -9 13 -20z"/>
<path d="M1120 1316 c0 -2 8 -10 18 -17 15 -13 16 -12 3 4 -13 16 -21 21 -21
13z"/>
<path d="M2040 1300 c-8 -5 -39 -10 -69 -10 l-53 0 6 -32 c3 -17 8 -34 11 -36
8 -8 165 30 172 41 3 6 -4 19 -17 29 -25 21 -29 21 -50 8z"/>
<path d="M1664 1288 c-64 -11 -76 -36 -33 -67 20 -15 29 -30 29 -49 l0 -27 16
30 c8 17 23 37 32 45 13 12 14 12 4 1 -6 -8 -12 -25 -12 -37 0 -18 14 -27 78
-53 42 -17 80 -31 85 -31 4 0 7 10 7 21 0 27 -74 95 -111 103 -31 6 -36 24
-19 57 12 22 7 22 -76 7z"/>
<path d="M1372 1210 c-11 -19 -24 -30 -37 -29 -36 2 -45 -1 -45 -16 0 -7 -7
-18 -15 -23 -14 -7 -13 -12 6 -36 19 -24 20 -31 10 -54 -10 -22 -10 -28 3 -38
9 -6 16 -16 16 -23 0 -14 25 -14 51 0 15 8 25 6 46 -11 18 -14 30 -17 37 -10
5 5 18 10 29 10 15 0 18 6 16 35 -3 25 2 38 16 49 22 16 30 77 11 88 -6 4 -21
8 -33 8 -18 0 -23 6 -23 25 0 16 -7 28 -17 31 -10 3 -26 10 -36 15 -14 8 -21
4 -35 -21z m52 -86 c9 -8 16 -20 16 -25 0 -51 -71 -69 -92 -24 -21 46 40 86
76 49z"/>
<path d="M1130 1185 c-14 -16 -10 -18 14 -9 9 3 16 10 16 15 0 14 -16 11 -30
-6z"/>
<path d="M1622 1040 c0 -14 2 -19 5 -12 2 6 2 18 0 25 -3 6 -5 1 -5 -13z"/>
<path d="M1609 955 l-17 -46 25 -10 c31 -12 36 -11 28 2 -4 5 -10 30 -13 55
l-7 45 -16 -46z"/>
</g>
</svg>
